<svg width="154" height="26" viewBox="0 0 154 26" fill="none" xmlns="http://www.w3.org/2000/svg">
<path fill-rule="evenodd" clip-rule="evenodd" d="M12.9339 3.43149C10.6348 3.43149 8.4295 4.32831 6.80325 5.92521C5.17695 7.52216 4.26299 9.68844 4.26299 11.9476V20.31C4.26272 20.3305 4.26657 20.3508 4.2744 20.3697C4.28222 20.3886 4.29377 20.4057 4.30829 20.4199C4.3228 20.4342 4.33997 20.4453 4.35875 20.4528C4.37753 20.4603 4.39758 20.464 4.41774 20.4637L4.4259 20.4636L12.9339 20.4637C14.0724 20.4637 15.1997 20.2435 16.2516 19.8157C17.3035 19.3878 18.2593 18.7607 19.0646 17.97C19.8698 17.1793 20.5087 16.2405 20.9446 15.2071C21.3805 14.1738 21.6048 13.0662 21.6048 11.9476C21.6048 10.829 21.3805 9.72142 20.9446 8.68808C20.5087 7.65473 19.8698 6.71593 19.0646 5.92521C18.2593 5.13449 17.3035 4.50736 16.2516 4.07952C15.1997 3.65168 14.0724 3.43149 12.9339 3.43149ZM12.9339 21.6666H4.4293C4.24621 21.6684 4.06462 21.6344 3.89507 21.5667C3.72405 21.4985 3.5688 21.3973 3.43844 21.2693C3.30809 21.1413 3.20525 20.9891 3.13593 20.8216C3.06719 20.6555 3.03275 20.4778 3.03455 20.2987V11.9476C3.03455 9.37049 4.0771 6.8986 5.9334 5.0758C7.78976 3.25295 10.3079 2.22858 12.9339 2.22858C14.2342 2.22858 15.5216 2.48006 16.7228 2.96862C17.924 3.45718 19.0153 4.17323 19.9344 5.0758C20.8536 5.97837 21.5826 7.04979 22.08 8.22883C22.5773 9.40788 22.8333 10.6715 22.8333 11.9476C22.8333 13.2237 22.5773 14.4873 22.08 15.6664C21.5826 16.8454 20.8536 17.9168 19.9344 18.8194C19.0153 19.722 17.924 20.438 16.7228 20.9266C15.5216 21.4151 14.2342 21.6666 12.9339 21.6666Z" fill="#00B37E"/>
<path fill-rule="evenodd" clip-rule="evenodd" d="M9.09015 10.7583C9.09015 10.4262 9.36515 10.1569 9.70437 10.1569H15.7599C16.0991 10.1569 16.3741 10.4262 16.3741 10.7583C16.3741 11.0905 16.0991 11.3598 15.7599 11.3598H9.70437C9.36515 11.3598 9.09015 11.0905 9.09015 10.7583Z" fill="#996DFF"/>
<path fill-rule="evenodd" clip-rule="evenodd" d="M9.09015 13.9297C9.09015 13.5975 9.36515 13.3282 9.70437 13.3282H15.7599C16.0991 13.3282 16.3741 13.5975 16.3741 13.9297C16.3741 14.2619 16.0991 14.5311 15.7599 14.5311H9.70437C9.36515 14.5311 9.09015 14.2619 9.09015 13.9297Z" fill="#996DFF"/>
<path d="M40.1135 10.1015V11.9031H30.9048V10.1015H40.1135ZM31.2554 2.91802V19.626H29V2.91802H31.2554ZM42.0768 2.91802V19.626H39.8331V2.91802H42.0768Z" fill="#00B37E"/>
<path d="M51.005 19.8555C50.1247 19.8555 49.3261 19.7101 48.6094 19.4194C47.9004 19.1211 47.2888 18.7041 46.7747 18.1686C46.2683 17.6331 45.8787 16.9981 45.606 16.2637C45.3334 15.5293 45.197 14.726 45.197 13.8539V13.372C45.197 12.3621 45.3489 11.4633 45.6528 10.6753C45.9566 9.87967 46.3695 9.20645 46.8915 8.65564C47.4135 8.10483 48.0056 7.6879 48.6678 7.40484C49.33 7.12178 50.0156 6.98026 50.7246 6.98026C51.6283 6.98026 52.4074 7.13326 53.0618 7.43927C53.724 7.74527 54.2655 8.17368 54.6862 8.72449C55.1069 9.26765 55.4185 9.91027 55.6211 10.6523C55.8236 11.3867 55.9249 12.19 55.9249 13.0621V14.0146H46.4825V12.2818H53.763V12.1212C53.7318 11.5704 53.615 11.0348 53.4124 10.5146C53.2176 9.99442 52.906 9.56601 52.4775 9.2294C52.049 8.8928 51.4647 8.72449 50.7246 8.72449C50.2338 8.72449 49.7819 8.82777 49.369 9.03432C48.9561 9.23323 48.6016 9.53159 48.3055 9.92939C48.0095 10.3272 47.7797 10.813 47.6161 11.3867C47.4524 11.9605 47.3706 12.6223 47.3706 13.372V13.8539C47.3706 14.443 47.4524 14.9976 47.6161 15.5178C47.7875 16.0304 48.0329 16.4818 48.3523 16.8719C48.6795 17.2621 49.0729 17.5681 49.5326 17.7899C50 18.0118 50.5298 18.1227 51.1219 18.1227C51.8854 18.1227 52.532 17.9697 53.0618 17.6637C53.5916 17.3577 54.0551 16.9484 54.4525 16.4359L55.7613 17.4572C55.4886 17.8626 55.1419 18.2489 54.7212 18.6162C54.3005 18.9834 53.7825 19.2817 53.167 19.5112C52.5593 19.7407 51.8387 19.8555 51.005 19.8555Z" fill="#00B37E"/>
<path d="M60.798 2V19.626H58.6244V2H60.798Z" fill="#00B37E"/>
<path d="M66.4308 9.59661V24.3997H64.2571V7.20976H66.2438L66.4308 9.59661ZM74.95 13.3146V13.5556C74.95 14.4583 74.8409 15.296 74.6228 16.0686C74.4046 16.8337 74.0852 17.4992 73.6645 18.0653C73.2516 18.6315 72.7413 19.0713 72.1336 19.385C71.5259 19.6987 70.8287 19.8555 70.0418 19.8555C69.2393 19.8555 68.5304 19.7254 67.9149 19.4653C67.2994 19.2052 66.7775 18.8265 66.349 18.3293C65.9205 17.832 65.5777 17.2353 65.3206 16.5391C65.0713 15.843 64.8999 15.0588 64.8064 14.1867V12.9015C64.8999 11.9835 65.0752 11.1611 65.3323 10.4343C65.5894 9.70754 65.9283 9.08788 66.349 8.57531C66.7775 8.0551 67.2956 7.66112 67.9032 7.39336C68.5109 7.11796 69.2121 6.98026 70.0067 6.98026C70.8014 6.98026 71.5065 7.13326 72.1219 7.43927C72.7374 7.73762 73.2555 8.16603 73.6762 8.72449C74.0969 9.28295 74.4124 9.95234 74.6228 10.7327C74.8409 11.5053 74.95 12.366 74.95 13.3146ZM72.7764 13.5556V13.3146C72.7764 12.6949 72.7101 12.1135 72.5777 11.5704C72.4453 11.0195 72.2388 10.5376 71.9583 10.1245C71.6857 9.70371 71.3351 9.37476 70.9066 9.1376C70.4781 8.8928 69.9678 8.77039 69.3757 8.77039C68.8303 8.77039 68.3551 8.8622 67.95 9.0458C67.5526 9.2294 67.2137 9.47803 66.9333 9.79169C66.6528 10.0977 66.423 10.4496 66.2438 10.8474C66.0724 11.2376 65.9439 11.643 65.8582 12.0638V15.0359C66.014 15.5714 66.2321 16.0763 66.5126 16.5506C66.793 17.0173 67.167 17.396 67.6345 17.6867C68.1019 17.9697 68.6901 18.1112 69.3991 18.1112C69.9834 18.1112 70.4859 17.9927 70.9066 17.7555C71.3351 17.5107 71.6857 17.1779 71.9583 16.7572C72.2388 16.3364 72.4453 15.8544 72.5777 15.3113C72.7101 14.7605 72.7764 14.1752 72.7764 13.5556Z" fill="#00B37E"/>
<path d="M79.1136 2.54545H81.6364L87.5682 17.0341H87.7727L93.7045 2.54545H96.2273V20H94.25V6.73864H94.0795L88.625 20H86.7159L81.2614 6.73864H81.0909V20H79.1136V2.54545ZM105.681 20.2727C104.42 20.2727 103.332 19.9943 102.417 19.4375C101.508 18.875 100.806 18.0909 100.312 17.0852C99.8232 16.0739 99.5788 14.8977 99.5788 13.5568C99.5788 12.2159 99.8232 11.0341 100.312 10.0114C100.806 8.98295 101.494 8.18182 102.374 7.60795C103.261 7.02841 104.295 6.73864 105.477 6.73864C106.158 6.73864 106.832 6.85227 107.496 7.07954C108.161 7.30682 108.766 7.67614 109.312 8.1875C109.857 8.69318 110.292 9.36364 110.616 10.1989C110.94 11.0341 111.102 12.0625 111.102 13.2841V14.1364H101.011V12.3977H109.056C109.056 11.6591 108.908 11 108.613 10.4205C108.323 9.84091 107.908 9.38352 107.369 9.0483C106.835 8.71307 106.204 8.54545 105.477 8.54545C104.675 8.54545 103.982 8.74432 103.397 9.14205C102.817 9.53409 102.371 10.0455 102.059 10.6761C101.746 11.3068 101.59 11.983 101.59 12.7045V13.8636C101.59 14.8523 101.761 15.6903 102.102 16.3778C102.448 17.0597 102.928 17.5795 103.542 17.9375C104.156 18.2898 104.869 18.4659 105.681 18.4659C106.21 18.4659 106.687 18.392 107.113 18.2443C107.545 18.0909 107.917 17.8636 108.229 17.5625C108.542 17.2557 108.783 16.875 108.954 16.4205L110.897 16.9659C110.692 17.625 110.349 18.2045 109.866 18.7045C109.383 19.1989 108.786 19.5852 108.076 19.8636C107.366 20.1364 106.567 20.2727 105.681 20.2727Z" fill="#996DFF"/>
</svg>
