<svg width="163" height="87" viewBox="0 0 163 87" fill="none" xmlns="http://www.w3.org/2000/svg">
<path d="M81.6894 35.5909H67.8377C67.671 35.5931 67.5054 35.5618 67.3509 35.4988C67.1964 35.4359 67.0561 35.3425 66.9382 35.2242C66.8202 35.106 66.7271 34.9652 66.6643 34.8103C66.6015 34.6554 66.5703 34.4894 66.5725 34.3222V20.4318C66.5725 16.4114 68.1652 12.5556 71.0001 9.71272C73.8351 6.86983 77.6802 5.27272 81.6894 5.27272V5.27272C83.6746 5.27272 85.6404 5.66482 87.4744 6.42664C89.3085 7.18845 90.975 8.30506 92.3787 9.71272C93.7825 11.1204 94.896 12.7915 95.6557 14.6307C96.4154 16.4699 96.8064 18.4411 96.8064 20.4318V20.4318C96.8064 22.4225 96.4154 24.3938 95.6557 26.2329C94.896 28.0721 93.7825 29.7433 92.3787 31.1509C90.975 32.5586 89.3085 33.6752 87.4744 34.437C85.6404 35.1988 83.6746 35.5909 81.6894 35.5909V35.5909Z" stroke="#00B37E" stroke-width="2" stroke-linecap="round" stroke-linejoin="round"/>
<path d="M76.4314 18.4545H86.2903" stroke="#996DFF" stroke-width="2" stroke-linecap="round" stroke-linejoin="round"/>
<path d="M76.4314 23.7273H86.2903" stroke="#996DFF" stroke-width="2" stroke-linecap="round" stroke-linejoin="round"/>
<path d="M50.6497 61.9059V64.3311H38.5109V61.9059H50.6497ZM38.9731 52.2358V74.7273H36V52.2358H38.9731ZM53.2376 52.2358V74.7273H50.28V52.2358H53.2376Z" fill="#00B37E"/>
<path d="M65.0066 75.0362C63.8462 75.0362 62.7935 74.8406 61.8487 74.4492C60.9142 74.0476 60.108 73.4863 59.4302 72.7654C58.7627 72.0446 58.2492 71.1898 57.8898 70.2012C57.5303 69.2125 57.3506 68.1312 57.3506 66.9572V66.3084C57.3506 64.949 57.5509 63.739 57.9514 62.6783C58.3519 61.6072 58.8962 60.701 59.5843 59.9595C60.2723 59.218 61.0528 58.6568 61.9257 58.2757C62.7987 57.8947 63.7024 57.7042 64.6369 57.7042C65.8282 57.7042 66.8552 57.9102 67.7178 58.3221C68.5908 58.734 69.3045 59.3107 69.8591 60.0522C70.4136 60.7834 70.8244 61.6484 71.0914 62.6474C71.3584 63.636 71.4919 64.7173 71.4919 65.8913V67.1735H59.0451V64.8409H68.6421V64.6246C68.601 63.8832 68.447 63.1623 68.18 62.462C67.9232 61.7617 67.5124 61.185 66.9476 60.7319C66.3828 60.2788 65.6126 60.0522 64.6369 60.0522C63.99 60.0522 63.3943 60.1912 62.85 60.4693C62.3057 60.737 61.8385 61.1387 61.4482 61.6742C61.058 62.2097 60.755 62.8636 60.5393 63.636C60.3237 64.4084 60.2159 65.2992 60.2159 66.3084V66.9572C60.2159 67.7502 60.3237 68.4968 60.5393 69.1971C60.7653 69.8871 61.0888 70.4947 61.5098 71.0199C61.9412 71.5451 62.4598 71.957 63.0657 72.2557C63.6819 72.5543 64.3802 72.7037 65.1607 72.7037C66.1671 72.7037 67.0195 72.4977 67.7178 72.0858C68.4162 71.6738 69.0272 71.1229 69.551 70.4329L71.2763 71.8077C70.9168 72.3535 70.4598 72.8736 69.9053 73.3679C69.3507 73.8622 68.6678 74.2639 67.8565 74.5728C67.0554 74.8818 66.1055 75.0362 65.0066 75.0362Z" fill="#00B37E"/>
<path d="M77.9156 51V74.7273H75.0504V51H77.9156Z" fill="#00B37E"/>
<path d="M85.3406 61.2262V81.1534H82.4753V58.0131H85.0941L85.3406 61.2262ZM96.5704 66.2312V66.5556C96.5704 67.7708 96.4267 68.8984 96.1391 69.9386C95.8516 70.9684 95.4305 71.8643 94.8759 72.6264C94.3316 73.3885 93.659 73.9806 92.858 74.4029C92.0569 74.8251 91.1378 75.0362 90.1006 75.0362C89.0428 75.0362 88.1082 74.8612 87.2969 74.511C86.4856 74.1609 85.7976 73.6511 85.2327 72.9817C84.6679 72.3123 84.216 71.5091 83.8771 70.5719C83.5485 69.6348 83.3226 68.5792 83.1993 67.4052V65.6751C83.3226 64.4393 83.5536 63.3322 83.8925 62.3539C84.2314 61.3755 84.6782 60.5414 85.2327 59.8514C85.7976 59.1511 86.4805 58.6207 87.2815 58.2603C88.0826 57.8896 89.0068 57.7042 90.0543 57.7042C91.1018 57.7042 92.0312 57.9102 92.8425 58.3221C93.6539 58.7237 94.3368 59.3004 94.8913 60.0522C95.4459 60.804 95.8618 61.7051 96.1391 62.7555C96.4267 63.7956 96.5704 64.9542 96.5704 66.2312ZM93.7052 66.5556V66.2312C93.7052 65.397 93.6179 64.6143 93.4433 63.8832C93.2687 63.1417 92.9966 62.4929 92.6269 61.9368C92.2674 61.3704 91.8053 60.9276 91.2405 60.6083C90.6757 60.2788 90.003 60.114 89.2225 60.114C88.5036 60.114 87.8772 60.2376 87.3431 60.4847C86.8194 60.7319 86.3727 61.0666 86.003 61.4888C85.6333 61.9007 85.3303 62.3745 85.0941 62.91C84.8682 63.4352 84.6987 63.981 84.5857 64.5474V68.5483C84.7911 69.2692 85.0787 69.9489 85.4484 70.5874C85.8181 71.2156 86.3111 71.7253 86.9272 72.1167C87.5434 72.4977 88.3188 72.6882 89.2533 72.6882C90.0235 72.6882 90.6859 72.5286 91.2405 72.2093C91.8053 71.8798 92.2674 71.4318 92.6269 70.8654C92.9966 70.299 93.2687 69.6502 93.4433 68.919C93.6179 68.1776 93.7052 67.3897 93.7052 66.5556Z" fill="#00B37E"/>
<path d="M100.818 52.7273H104.182L112.091 72.0455H112.364L120.273 52.7273H123.636V76H121V58.3182H120.773L113.5 76H110.955L103.682 58.3182H103.455V76H100.818V52.7273ZM136.241 76.3636C134.56 76.3636 133.109 75.9924 131.889 75.25C130.677 74.5 129.741 73.4545 129.082 72.1136C128.431 70.7652 128.105 69.197 128.105 67.4091C128.105 65.6212 128.431 64.0455 129.082 62.6818C129.741 61.3106 130.658 60.2424 131.832 59.4773C133.014 58.7045 134.393 58.3182 135.969 58.3182C136.878 58.3182 137.776 58.4697 138.662 58.7727C139.548 59.0758 140.355 59.5682 141.082 60.25C141.81 60.9242 142.389 61.8182 142.821 62.9318C143.253 64.0455 143.469 65.4167 143.469 67.0455V68.1818H130.014V65.8636H140.741C140.741 64.8788 140.545 64 140.151 63.2273C139.764 62.4545 139.211 61.8447 138.491 61.3977C137.779 60.9508 136.938 60.7273 135.969 60.7273C134.901 60.7273 133.976 60.9924 133.196 61.5227C132.423 62.0455 131.829 62.7273 131.412 63.5682C130.995 64.4091 130.787 65.3106 130.787 66.2727V67.8182C130.787 69.1364 131.014 70.2538 131.469 71.1705C131.931 72.0795 132.571 72.7727 133.389 73.25C134.207 73.7197 135.158 73.9545 136.241 73.9545C136.946 73.9545 137.582 73.8561 138.151 73.6591C138.726 73.4545 139.223 73.1515 139.639 72.75C140.056 72.3409 140.378 71.8333 140.605 71.2273L143.196 71.9545C142.923 72.8333 142.465 73.6061 141.821 74.2727C141.177 74.9318 140.382 75.447 139.435 75.8182C138.488 76.1818 137.423 76.3636 136.241 76.3636Z" fill="#996DFF"/>
</svg>
